#!OML:ASF E:/inclinewalkrobotboard/Project1/Captureday1/Session1/subject1.ASF
:FULLY-SPECIFIED
:DEGREES
226
root 0 0 0 -1.1368379748321091 -2.860104532307471 -0.844809211346126
lowerback 10.961009636434575 0.5679314988659577 0.46964889214494837
upperback -1.1554431551035067 0.884230478198733 0.8949255230587481
thorax -7.342241210822109 0.4072121717297672 0.43098781495078275
lowerneck -13.323578874378232 -1.3729548085849033 0.26610616179992336
upperneck 19.049321402353108 -1.3459576884708289 -2.414718696742399
head 8.197299060343441 -0.785898708803966 -1.0297262924774198
rclavicle -4.646402620975852E-16 -2.9377827787291864E-16
rhumerus -10.606696835776532 -5.980328699754201 -66.56388948053585
rradius 44.04596041085341
rwrist 12.560387159325412
rhand -23.992490769410217 -7.420741479787493
rfingers 7.125020000000129
rthumb 2.7103396481546183 -37.537331708141295
lclavicle -9.880915448806173E-16 -7.936424016476111E-16
lhumerus -11.990175940678498 -4.19863818398651 68.40561573511599
lradius 44.001556702435806
lwrist -5.318849199584567
lhand -33.45692548571798 -11.521634099229427
lfingers 7.125020000000128
lthumb -6.7435970878701195 17.543202738767185
rfemur 13.854337419420016 7.6847474930170545 37.420855658103875
rtibia 37.873879704722604
rfoot -12.791854644979418 -0.8487656688914473
rtoes 8.420683635372788
lfemur -31.785830044871 -3.093119095804642 -10.97967096983594
ltibia 25.8889103288193
lfoot -5.305204435428616 4.895018663851419
ltoes 1.497499217874891
227
root 0 0 0 -1.1431308784246725 -2.8581850061765994 -0.8517504617045166
lowerback 10.958317063970377 0.567026096744464 0.4709237643372883
upperback -1.1467067124011627 0.8834324556131622 0.8988214700210864
thorax -7.330829132783019 0.40687510812990774 0.43425300635105374
lowerneck -13.342367376989817 -1.3809921416828277 0.2548289282017198
upperneck 19.04962210880356 -1.3586490543400676 -2.399341751021155
head 8.200633423727568 -0.7911037996885436 -1.0239022517040568
rclavicle -4.620439666665272E-16 -2.8310500992209233E-16
rhumerus -10.810864306080965 -6.11655699927255 -66.68946828085637
rradius 43.853615079758754
rwrist 12.464150572294702
rhand -23.924017687927773 -7.0892705183794895
rfingers 7.12502000000013
rthumb 2.778335289098645 -37.21043379579461
lclavicle -9.85545036639601E-16 -7.926632033633848E-16
lhumerus -12.178725370658139 -4.153828061561567 68.53987785874243
lradius 43.85009508965227
lwrist -5.214601771151679
lhand -33.39245533713006 -11.175124766250864
lfingers 7.125020000000129
lthumb -6.68210408464126 17.892893296809113
rfemur 13.246385478662592 7.371679147414632 37.05053355265868
rtibia 39.6632632931475
rfoot -11.996114821873604 -0.7498796251162823
rtoes 8.720979967812374
lfemur -27.772636987763104 -3.9649099105142134 -13.08647435421965
ltibia 19.641452860683934
lfoot -7.990625538885691 6.052040163923966
ltoes 1.574226348660586
228
root 0 0 0 -1.1517050141222716 -2.8553917029174842 -0.861153296480959
lowerback 10.954727075860662 0.5658055571176382 0.47310751642054694
upperback -1.1348361192625784 0.8825770627339413 0.9040859993570346
thorax -7.315603483114639 0.4063847324054978 0.4387951732340592
lowerneck -13.367667277126301 -1.3918579982648205 0.23962456933997317
upperneck 19.050114883170796 -1.3758036674044711 -2.3785128978071173
head 8.205174397344377 -0.798203068288919 -1.0160342820005446
rclavicle -4.610359201612655E-16 -2.6914630338064716E-16
rhumerus -11.072233856259171 -6.29197851620315 -66.85010508713074
rradius 43.6067791487458
rwrist 12.340665558547316
rhand -23.83626672596153 -6.663699005160728
rfingers 7.125020000000131
rthumb 2.8661124985790227 -36.79213522054871
lclavicle -9.845505422291469E-16 -7.922784916456993E-16
lhumerus -12.374028787386088 -4.107785213967291 68.67925154244749
lradius 43.69284812284208
lwrist -5.105386560629422
lhand -33.32569243546324 -10.815644258825602
lfingers 7.12502000000013
lthumb -6.618327041053257 18.257621867942767
rfemur 12.319377855667206 6.990859236872696 36.53103156399545
rtibia 41.74537444372786
rfoot -10.9969385816832 -0.6731805249765266
rtoes 9.06664548241634
lfemur -22.882919658630623 -4.585037298078625 -15.477345612384715
ltibia 15.004410789943485
lfoot -10.28316618051218 6.476537460903648
ltoes 1.353976181989422
229
root 0 0 0 -1.161003944187225 -2.852231044669626 -0.8712949429117121
lowerback 10.950892953102581 0.5644923075281137 0.47575195386357794
upperback -1.1219676158538174 0.881827514658109 0.909740645122002
thorax -7.299280615375858 0.40582889779851283 0.44379753988849324
lowerneck -13.39486408494856 -1.403596435716473 0.22323807796792688
upperneck 19.05066357157411 -1.3943887595497992 -2.356008173691979
head 8.210050056425349 -0.8059075239639636 -1.0075207283463186
rclavicle -4.618296564101232E-16 -2.539253818341015E-16
rhumerus -11.355312862357575 -6.4821887358255355 -67.024015800207
rradius 43.33846663515962
rwrist 12.206734359532936
rhand -23.741089673700127 -6.2015955963694385
rfingers 7.125020000000132
rthumb 2.9618240911324643 -36.33765488620891
lclavicle -9.85612542702339E-16 -7.922775459743732E-16
lhumerus -12.562006222252736 -4.063581924315608 68.81407068549326
lradius 43.540951109245746
lwrist -4.999115374596294
lhand -33.26118992980712 -10.46664784846653
lfingers 7.125020000000131
lthumb -6.556562103121477 18.61025209227612
rfemur 10.977771436401277 6.518420716213912 35.81239445256335
rtibia 44.225004615764355
rfoot -9.73156757775623 -0.62723235098996
rtoes 9.46012817053677
lfemur -17.49140667885777 -5.034344886469719 -18.019539225795295
ltibia 11.447027833224059
lfoot -12.275382160732212 6.423771042820567
ltoes 0.9814881380133667
230
root 0 0 0 -1.1697095975884617 -2.8491803849360604 -0.880796231458475
lowerback 10.94731679006816 0.5632469629379779 0.47833655808124
upperback -1.1098630540666654 0.8812044303586756 0.9150252881038552
thorax -7.284021297953517 0.40528792721500084 0.44854391321347653
lowerneck -13.4202390081311 -1.4146144542349626 0.2079001760102001
upperneck 19.051097925445323 -1.4119006912911796 -2.334937036438158
head 8.214583568413303 -0.8131622087126311 -0.9995300480812037
rclavicle -4.634676725383425E-16 -2.3900962468296083E-16
rhumerus -11.627821751084205 -6.665183418385229 -67.19135590643296
rradius 43.07968137705933
rwrist 12.077778364713588
rhand -23.649418774911272 -5.755703442504631
rfingers 7.125020000000133
rthumb 3.054363905534741 -35.89930479019829
lclavicle -9.882017828238375E-16 -7.924083149887445E-16
lhumerus -12.728481826454523 -4.024499355180119 68.933925789626
lradius 43.40601805578209
lwrist -4.904092019319475
lhand -33.203821859239014 -10.154744086152842
lfingers 7.125020000000132
lthumb -6.501523623626035 18.922754654700675
rfemur 9.037826329368759 5.910710480179718 34.801810898876646
rtibia 47.2900349250592
rfoot -8.085282593000862 -0.6283350795319524
rtoes 9.90757696134571
lfemur -11.94525795750891 -5.3576172230591865 -20.537290877878462
ltibia 8.798519970025463
lfoot -13.887076564446655 5.993910611995565
ltoes 0.5297973234657647
231
root 0 0 0 -1.1794384783130634 -2.8456025547819053 -0.8915138511975913
lowerback 10.943272114248188 0.5617762956379071 0.48115575234033525
upperback -1.096128156913648 0.8805421649547099 0.9209883175363529
thorax -7.26680800709123 0.4046522634311779 0.4539978983105933
lowerneck -13.44857430442575 -1.4270522304793327 0.1905952635303545
upperneck 19.051338563481803 -1.431831444228291 -2.3113357672252954
head 8.21964238866748 -0.8213853989906112 -0.990526340503233
rclavicle -4.651369698571233E-16 -2.1980799776374576E-16
rhumerus -11.959191475373972 -6.88721920480115 -67.39460793979983
rradius 42.765572764337506
rwrist 11.921310498681288
rhand -23.538174322555804 -5.212043281194693
rfingers 7.125020000000134
rthumb 3.167215273216273 -35.367351716291836
lclavicle -9.936976918897516E-16 -7.925327030819825E-16
lhumerus -12.899402411589916 -3.984475664302317 69.05753098684725
lradius 43.26636064380401
lwrist -4.805036646458582
lhand -33.14442801608634 -9.829823177948725
lfingers 7.125020000000132
lthumb -6.444514896962507 19.242776870497273
rfemur 4.447881633120179 4.60779124259549 32.463111379960594
rtibia 53.565416834614
rfoot -4.595379535358818 -0.7710676381098107
rtoes 10.683976153917373
lfemur -4.0762266653864945 -5.612112722521051 -23.90818296416974
ltibia 6.672266700463844
lfoot -15.370899939285035 4.731411883836718
ltoes -0.2049261545968264
232
root 0 0 0 -1.1821318010079085 -2.8443881739609584 -0.8945755397292368
lowerback 10.942081406979456 0.5612669917645716 0.4816163092203911
upperback -1.0920777155447667 0.8804103570343544 0.9227155837878739
thorax -7.261775335701648 0.40444476517967537 0.4557190930472263
lowerneck -13.456466413636461 -1.4305785953598609 0.18552104521666157
upperneck 19.05127576128209 -1.437737474697859 -2.304829524758132
head 8.221046010248106 -0.823751646583527 -0.9879308215918279
rclavicle -4.654617124275687E-16 -2.1148072641994648E-16
rhumerus -12.087618389737663 -6.97312528829773 -67.47300913201704
rradius 42.644712130048845
rwrist 11.861137534989435
rhand -23.495311505225956 -5.001839816911255
rfingers 7.125020000000135
rthumb 3.21090615430147 -35.16166578457439
lclavicle -9.951193996405906E-16 -7.928345358810356E-16
lhumerus -12.928217301399439 -3.9778482865830638 69.0791548287389
lradius 43.242126220271196
lwrist -4.7869724242820055
lhand -33.133865303997155 -9.769543703785368
lfingers 7.1250200000001325
lthumb -6.4342478094847255 19.296619076147266
rfemur 0.13173773460857063 3.4958814580171786 30.326002719355966
rtibia 58.593163004387534
rfoot -1.7553498268142125 -1.035480595148127
rtoes 11.126958976220283
lfemur 0.30394859888230563 -5.627898416797666 -25.68093105390901
ltibia 6.462002449092257
lfoot -15.7651272342183 3.651109313886572
ltoes -0.6721414967470363
